<svg id="Capa_1" enable-background="new 0 0 497 497" height="512" viewBox="0 0 497 497" width="512" xmlns="http://www.w3.org/2000/svg"><g><path d="m309.5 0v375c103.553 0 187.5-83.947 187.5-187.5s-83.947-187.5-187.5-187.5z" fill="#b36444"/><path d="m467 187.5c0-103.553-70.515-187.5-157.5-187.5-103.553 0-187.5 83.947-187.5 187.5s83.947 187.5 187.5 187.5c86.985 0 157.5-83.947 157.5-187.5z" fill="#c7734f"/><circle cx="217.5" cy="279.5" fill="#5bbb4d" r="217.5"/><circle cx="217.5" cy="279.5" fill="#a9d656" r="187.5"/><path d="m363.31 309.758c15.493-17.02 15.493-43.495.001-60.516-.835-.917-1.699-1.792-2.588-2.624-12.401-11.597-19.266-28.176-18.699-45.144.041-1.216.033-2.444-.025-3.682-1.08-22.99-19.801-41.711-42.79-42.791-1.239-.058-2.468-.066-3.685-.025-16.969.569-33.547-6.301-45.145-18.701-.83-.888-1.704-1.75-2.62-2.584-17.019-15.493-43.494-15.494-60.515-.003-.918.835-1.792 1.699-2.624 2.588-11.598 12.402-28.179 19.265-45.149 18.699-1.214-.041-2.44-.033-3.676.025-22.99 1.079-41.712 19.799-42.793 42.789-.058 1.239-.066 2.468-.025 3.685.568 16.971-6.303 33.548-18.703 45.148-.887.83-1.748 1.702-2.581 2.617-15.493 17.019-15.495 43.495-.003 60.516.835.918 1.699 1.792 2.588 2.624 12.401 11.598 19.266 28.178 18.7 45.148-.041 1.215-.033 2.442.025 3.68 1.08 22.99 19.801 41.711 42.791 42.791 1.239.058 2.468.066 3.685.025 16.968-.569 33.546 6.299 45.142 18.699.831.889 1.706 1.752 2.623 2.587 17.02 15.493 43.496 15.493 60.516 0 .917-.835 1.792-1.699 2.624-2.588 11.597-12.401 28.176-19.266 45.144-18.698 1.215.041 2.443.033 3.68-.025 22.99-1.079 41.712-19.799 42.793-42.789.058-1.239.066-2.468.025-3.685-.568-16.97 6.302-33.548 18.702-45.147.886-.83 1.748-1.703 2.582-2.619z" fill="#d8e15a"/><path d="m217.5 218.213v122.574c33.848 0 61.287-27.439 61.287-61.287s-27.439-61.287-61.287-61.287z" fill="#fff1b8"/><path d="m248.787 279.5c0-33.848-14.008-61.287-31.287-61.287-33.848 0-61.287 27.439-61.287 61.287s27.439 61.287 61.287 61.287c17.279 0 31.287-27.439 31.287-61.287z" fill="#fff9e0"/><g fill="#757478"><path d="m228.107 177.607c5.858-5.858 5.858-15.355 0-21.213s-15.355-5.858-21.213 0-5.858 15.355 0 21.213l10.607 10.607z"/><path d="m152.951 199.95c0-8.284-6.716-15-15-15s-15 6.716-15 15 6.716 15 15 15h15z"/><path d="m115.607 268.893c-5.858-5.858-15.355-5.858-21.213 0s-5.858 15.355 0 21.213 15.355 5.858 21.213 0l10.607-10.607z"/><path d="m137.95 344.049c-8.284 0-15 6.716-15 15s6.716 15 15 15 15-6.716 15-15v-15z"/><path d="m206.893 381.393c-5.858 5.858-5.858 15.355 0 21.213s15.355 5.858 21.213 0 5.858-15.355 0-21.213l-10.606-10.606z"/><path d="m282.049 359.05c0 8.284 6.716 15 15 15s15-6.716 15-15-6.716-15-15-15h-15z"/><path d="m319.393 290.107c5.858 5.858 15.355 5.858 21.213 0s5.858-15.355 0-21.213-15.355-5.858-21.213 0l-10.606 10.606z"/><path d="m297.05 214.951c8.284 0 15-6.716 15-15s-6.716-15-15-15-15 6.716-15 15v15z"/></g></g></svg>