<?xml version="1.0" encoding="utf-8"?>
<!-- Svg Vector Icons : http://www.onlinewebfonts.com/icon -->
<!DOCTYPE svg PUBLIC "-//W3C//DTD SVG 1.1//EN" "http://www.w3.org/Graphics/SVG/1.1/DTD/svg11.dtd">
<svg version="1.1" xmlns="http://www.w3.org/2000/svg" xmlns:xlink="http://www.w3.org/1999/xlink" x="0px" y="0px" viewBox="0 0 1000 1000" enable-background="new 0 0 1000 1000" xml:space="preserve">
<metadata> Svg Vector Icons : http://www.onlinewebfonts.com/icon </metadata>
<g><g><g id="Ellipse_4_copy_5"><g><path d="M521.3,819.6c23.5,0,42.6-19.1,42.6-42.6c0-23.5-19.1-42.6-42.6-42.6c-23.5,0-42.6,19.1-42.6,42.6C478.7,800.5,497.8,819.6,521.3,819.6z M840.9,180.4c-23.5,0-42.6,19.1-42.6,42.6c0,23.5,19.1,42.6,42.6,42.6c23.5,0,42.6-19.1,42.6-42.6C883.5,199.5,864.4,180.4,840.9,180.4z M840.9,73.9c-75.1,0-137.1,55.6-147.4,127.8H306.6c-10.4-72.2-72.3-127.8-147.4-127.8C76.8,73.9,10,140.7,10,223c0,82.4,66.8,149.1,149.1,149.1c20.5,0,39.9-4.2,57.6-11.7L413.7,674c-25.7,26.8-41.5,63-41.5,103c0,82.4,66.8,149.1,149.1,149.1c82.4,0,149.1-66.8,149.1-149.1c0-82.4-66.8-149.1-149.1-149.1c-26.9,0-52.1,7.2-73.9,19.7L253.3,338.4c28.2-23.1,47.9-56.3,53.3-94.1h386.9c10.4,72.2,72.3,127.8,147.4,127.8c82.4,0,149.1-66.8,149.1-149.1C990,140.7,923.2,73.9,840.9,73.9z M521.3,670.4c58.8,0,106.5,47.7,106.5,106.5c0,58.8-47.7,106.5-106.5,106.5c-58.8,0-106.5-47.7-106.5-106.5C414.8,718.1,462.5,670.4,521.3,670.4z M159.1,329.6c-58.8,0-106.5-47.7-106.5-106.5c0-58.8,47.7-106.5,106.5-106.5S265.7,164.2,265.7,223C265.7,281.9,218,329.6,159.1,329.6z M840.9,329.6c-58.8,0-106.5-47.7-106.5-106.5c0-58.8,47.7-106.5,106.5-106.5c58.8,0,106.5,47.7,106.5,106.5C947.4,281.9,899.7,329.6,840.9,329.6z M159.1,180.4c-23.5,0-42.6,19.1-42.6,42.6c0,23.5,19.1,42.6,42.6,42.6c23.5,0,42.6-19.1,42.6-42.6C201.7,199.5,182.7,180.4,159.1,180.4z"/></g></g></g><g></g><g></g><g></g><g></g><g></g><g></g><g></g><g></g><g></g><g></g><g></g><g></g><g></g><g></g><g></g></g>
</svg>